<svg xmlns="http://www.w3.org/2000/svg" width="40" height="40" fill="none"><path fill="#0045FF" fill-rule="evenodd" d="m1 9.967 19-8 19 8-19 8-19-8Zm19 1c1.105 0 2-.448 2-1 0-.553-.895-1-2-1s-2 .447-2 1c0 .552.895 1 2 1Z" clip-rule="evenodd" opacity=".05"/><path fill="#0045FF" d="M7.5 23.967v-8.5l12.5 5 12.5-5v8.5c-1.942 4.856-9 6-12.5 6s-9.311-1.536-12.5-6Z" opacity=".05"/><path fill="#0045FF" d="M28.161 34.653a.665.665 0 0 0-.808.485l-.666 2.666a.666.666 0 1 0 1.293.325l.667-2.667a.667.667 0 0 0-.486-.809ZM20 21.3a.662.662 0 0 0 .255-.05l7.333-3.035a.667.667 0 1 0-.51-1.232L20 19.912 1.333 12.188v-.222a.667.667 0 0 0-1.333 0v.667c0 .27.163.514.412.616l19.333 8a.66.66 0 0 0 .255.05ZM27.93 28.13a.666.666 0 0 0-.892-.303c-1.266.626-3.38 1.354-6.371 1.454V23.3a.667.667 0 0 0-1.334 0v5.975C11.055 29.01 8.384 23.995 8 23.16v-4.528a.667.667 0 0 0-1.333 0V23.3c0 .085.016.169.047.248.116.289 2.953 7.085 13.286 7.085 3.611 0 6.142-.876 7.629-1.61a.665.665 0 0 0 .302-.893ZM30 35.3a.666.666 0 0 0-.667.667v2a.667.667 0 1 0 1.334 0v-2A.666.666 0 0 0 30 35.3Z"/><path fill="#0045FF" d="M39.333 11.3a.666.666 0 0 0-.666.666v.22l-8 3.293v-1.204l8.921-3.693a.666.666 0 0 0 0-1.232l-19.333-8a.667.667 0 0 0-.51 0l-19.333 8a.667.667 0 0 0 0 1.232l19.333 8a.66.66 0 0 0 .51 0l6.99-2.892a.666.666 0 1 0-.509-1.231L20 17.245 2.41 9.967 20 2.687l17.59 7.28-7.654 3.167-7.331-2.738a1.59 1.59 0 0 0 .062-.43c0-1.12-1.172-2-2.667-2-1.495 0-2.667.88-2.667 2 0 1.122 1.172 2 2.667 2 .667 0 1.263-.181 1.725-.475l7.608 2.84v16.425A1.998 1.998 0 0 0 28 32.633c0 1.103.897 2 2 2s2-.897 2-2c0-.868-.56-1.6-1.333-1.877v-3.784c1.914-1.445 2.6-3.369 2.63-3.454a.674.674 0 0 0 .036-.218v-4.667a.666.666 0 1 0-1.333 0v4.544a6.82 6.82 0 0 1-1.333 2.014v-8.27l8.92-3.671a.667.667 0 0 0 .413-.617v-.666a.666.666 0 0 0-.667-.667ZM20 10.633c-.814 0-1.333-.394-1.333-.666 0-.273.519-.667 1.333-.667s1.333.395 1.333.667-.519.666-1.333.666ZM30 33.3a.667.667 0 1 1 .001-1.335A.667.667 0 0 1 30 33.3ZM32.647 35.138a.666.666 0 1 0-1.294.324l.667 2.666a.667.667 0 0 0 1.293-.324l-.666-2.666Z"/></svg>